<svg width="80" height="80" viewBox="0 0 80 80" fill="none" xmlns="http://www.w3.org/2000/svg">
<circle cx="40" cy="25" r="8" stroke="white" stroke-width="2" fill="none"/>
<path d="M25 45 C25 38, 31 33, 40 33 C49 33, 55 38, 55 45" stroke="white" stroke-width="2" fill="none"/>
<rect x="35" y="42" width="10" height="18" fill="white" fill-opacity="0.3"/>
<circle cx="20" cy="35" r="6" stroke="white" stroke-width="2" fill="none"/>
<circle cx="60" cy="35" r="6" stroke="white" stroke-width="2" fill="none"/>
<path d="M10 50 C10 45, 14 42, 20 42 C26 42, 30 45, 30 50" stroke="white" stroke-width="1.5" fill="none"/>
<path d="M50 50 C50 45, 54 42, 60 42 C66 42, 70 45, 70 50" stroke="white" stroke-width="1.5" fill="none"/>
<polygon points="40,10 43,17 37,17" fill="white"/>
</svg>