<svg width="80" height="80" viewBox="0 0 80 80" fill="none" xmlns="http://www.w3.org/2000/svg">
<path d="M20 30 Q30 20, 40 30 Q50 40, 60 30" stroke="white" stroke-width="2" fill="none"/>
<circle cx="25" cy="25" r="3" fill="white"/>
<circle cx="40" cy="35" r="3" fill="white"/>
<circle cx="55" cy="25" r="3" fill="white"/>
<path d="M15 50 Q25 45, 35 50" stroke="white" stroke-width="2" fill="none"/>
<path d="M45 50 Q55 45, 65 50" stroke="white" stroke-width="2" fill="none"/>
<rect x="30" y="45" width="20" height="3" rx="1.5" fill="white"/>
<path d="M25 60 Q30 55, 35 60 Q40 65, 45 60 Q50 55, 55 60" stroke="white" stroke-width="2" fill="none"/>
<circle cx="40" cy="15" r="2" fill="white" fill-opacity="0.7"/>
<circle cx="15" cy="40" r="1.5" fill="white" fill-opacity="0.7"/>
<circle cx="65" cy="40" r="1.5" fill="white" fill-opacity="0.7"/>
</svg>